<svg width="158" height="16" viewBox="0 0 158 16" fill="none" xmlns="http://www.w3.org/2000/svg">
<path d="M0 0.265193H3.50172V15.7348H0V0.265193Z" fill="white"/>
<path d="M20.9698 0.265193V15.7348H18.0949L10.5511 6.34254V15.7348H7.09261V0.265193H9.98909L17.5113 9.65746V0.265193H20.9698Z" fill="white"/>
<path d="M27.684 3.18232H22.8421V0.265193H36.0276V3.18232H31.1857V15.7348H27.684V3.18232Z" fill="white"/>
<path d="M49.6273 12.8619V15.7348H37.9117V0.265193H49.3463V3.13812H41.3918V6.49724H48.4168V9.28177H41.3918V12.8619H49.6273Z" fill="white"/>
<path d="M62.0541 15.7348L59.136 11.4254H58.9631H55.9152V15.7348H52.4135V0.265193H58.9631C60.3032 0.265193 61.4632 0.493554 62.4432 0.950276C63.4375 1.407 64.2012 2.05525 64.7344 2.89503C65.2676 3.73481 65.5342 4.72928 65.5342 5.87845C65.5342 7.02762 65.2604 8.0221 64.7128 8.86188C64.1796 9.68692 63.4159 10.3204 62.4215 10.7624L65.8152 15.7348H62.0541ZM61.9892 5.87845C61.9892 5.00921 61.7154 4.34623 61.1678 3.8895C60.6202 3.41805 59.8205 3.18232 58.7685 3.18232H55.9152V8.57459H58.7685C59.8205 8.57459 60.6202 8.33886 61.1678 7.8674C61.7154 7.39595 61.9892 6.73296 61.9892 5.87845Z" fill="white"/>
<path d="M68.3086 0.265193H71.8103V15.7348H68.3086V0.265193Z" fill="white"/>
<path d="M82.7289 16C81.1581 16 79.7387 15.6538 78.4706 14.9613C77.2169 14.2689 76.2298 13.3186 75.5093 12.1105C74.8031 10.8877 74.4501 9.5175 74.4501 8C74.4501 6.4825 74.8031 5.11971 75.5093 3.9116C76.2298 2.68877 77.2169 1.73112 78.4706 1.03867C79.7387 0.346225 81.1581 0 82.7289 0C84.2996 0 85.7118 0.346225 86.9655 1.03867C88.2192 1.73112 89.2063 2.68877 89.9268 3.9116C90.6474 5.11971 91.0076 6.4825 91.0076 8C91.0076 9.5175 90.6474 10.8877 89.9268 12.1105C89.2063 13.3186 88.2192 14.2689 86.9655 14.9613C85.7118 15.6538 84.2996 16 82.7289 16ZM82.7289 12.9503C83.6223 12.9503 84.4293 12.744 85.1498 12.3315C85.8703 11.9042 86.4323 11.3149 86.8358 10.5635C87.2537 9.81215 87.4627 8.95764 87.4627 8C87.4627 7.04236 87.2537 6.18785 86.8358 5.43646C86.4323 4.68508 85.8703 4.10313 85.1498 3.69061C84.4293 3.26335 83.6223 3.04972 82.7289 3.04972C81.8354 3.04972 81.0284 3.26335 80.3079 3.69061C79.5874 4.10313 79.0182 4.68508 78.6003 5.43646C78.1968 6.18785 77.995 7.04236 77.995 8C77.995 8.95764 78.1968 9.81215 78.6003 10.5635C79.0182 11.3149 79.5874 11.9042 80.3079 12.3315C81.0284 12.744 81.8354 12.9503 82.7289 12.9503Z" fill="white"/>
<path d="M103.28 15.7348L100.362 11.4254H100.189H97.141V15.7348H93.6393V0.265193H100.189C101.529 0.265193 102.689 0.493554 103.669 0.950276C104.663 1.407 105.427 2.05525 105.96 2.89503C106.493 3.73481 106.76 4.72928 106.76 5.87845C106.76 7.02762 106.486 8.0221 105.939 8.86188C105.405 9.68692 104.642 10.3204 103.647 10.7624L107.041 15.7348H103.28ZM103.215 5.87845C103.215 5.00921 102.941 4.34623 102.394 3.8895C101.846 3.41805 101.046 3.18232 99.9943 3.18232H97.141V8.57459H99.9943C101.046 8.57459 101.846 8.33886 102.394 7.8674C102.941 7.39595 103.215 6.73296 103.215 5.87845Z" fill="white"/>
<path d="M114.506 16C113.31 16 112.15 15.8379 111.026 15.5138C109.916 15.175 109.023 14.7403 108.345 14.2099L109.534 11.5138C110.183 12 110.954 12.3904 111.847 12.6851C112.741 12.9797 113.634 13.1271 114.528 13.1271C115.522 13.1271 116.257 12.9797 116.732 12.6851C117.208 12.3757 117.446 11.9705 117.446 11.4696C117.446 11.1013 117.302 10.7993 117.013 10.5635C116.74 10.3131 116.379 10.1142 115.933 9.96685C115.5 9.81952 114.909 9.65746 114.16 9.48066C113.007 9.20074 112.063 8.92081 111.328 8.64088C110.594 8.36096 109.959 7.9116 109.426 7.29282C108.907 6.67403 108.648 5.84899 108.648 4.81768C108.648 3.91897 108.886 3.10866 109.361 2.38674C109.837 1.65009 110.55 1.06814 111.501 0.640884C112.467 0.213628 113.641 0 115.025 0C115.99 0 116.934 0.117864 117.856 0.353591C118.779 0.589319 119.586 0.928177 120.277 1.37017L119.197 4.0884C117.799 3.27808 116.401 2.87293 115.003 2.87293C114.023 2.87293 113.295 3.03499 112.82 3.35912C112.359 3.68324 112.128 4.1105 112.128 4.64088C112.128 5.17127 112.395 5.56906 112.928 5.83425C113.476 6.08471 114.304 6.33518 115.414 6.58564C116.567 6.86556 117.51 7.14549 118.245 7.42541C118.98 7.70534 119.607 8.14733 120.126 8.75138C120.659 9.35543 120.926 10.1731 120.926 11.2044C120.926 12.0884 120.681 12.8987 120.191 13.6354C119.715 14.3573 118.995 14.9319 118.029 15.3591C117.064 15.7864 115.889 16 114.506 16Z" fill="white"/>
<path d="M124.778 15.9116C124.187 15.9116 123.69 15.7053 123.287 15.2928C122.883 14.8803 122.682 14.3646 122.682 13.7459C122.682 13.1123 122.883 12.6041 123.287 12.221C123.69 11.8232 124.187 11.6243 124.778 11.6243C125.369 11.6243 125.866 11.8232 126.27 12.221C126.673 12.6041 126.875 13.1123 126.875 13.7459C126.875 14.3646 126.673 14.8803 126.27 15.2928C125.866 15.7053 125.369 15.9116 124.778 15.9116Z" fill="white"/>
<path d="M136.217 16C134.675 16 133.277 15.6611 132.023 14.9834C130.784 14.291 129.804 13.3407 129.084 12.1326C128.378 10.9098 128.025 9.53223 128.025 8C128.025 6.46777 128.378 5.09761 129.084 3.8895C129.804 2.66667 130.784 1.71639 132.023 1.03867C133.277 0.346225 134.682 0 136.239 0C137.55 0 138.732 0.235727 139.783 0.707182C140.85 1.17864 141.743 1.85635 142.464 2.74033L140.216 4.86188C139.193 3.65378 137.925 3.04972 136.411 3.04972C135.475 3.04972 134.639 3.26335 133.904 3.69061C133.169 4.10313 132.593 4.68508 132.175 5.43646C131.771 6.18785 131.57 7.04236 131.57 8C131.57 8.95764 131.771 9.81215 132.175 10.5635C132.593 11.3149 133.169 11.9042 133.904 12.3315C134.639 12.744 135.475 12.9503 136.411 12.9503C137.925 12.9503 139.193 12.3389 140.216 11.116L142.464 13.2376C141.743 14.1363 140.85 14.8214 139.783 15.2928C138.717 15.7643 137.528 16 136.217 16Z" fill="white"/>
<path d="M151.753 16C150.211 16 148.813 15.6611 147.56 14.9834C146.32 14.291 145.34 13.3407 144.62 12.1326C143.914 10.9098 143.561 9.53223 143.561 8C143.561 6.46777 143.914 5.09761 144.62 3.8895C145.34 2.66667 146.32 1.71639 147.56 1.03867C148.813 0.346225 150.218 0 151.775 0C153.086 0 154.268 0.235727 155.32 0.707182C156.386 1.17864 157.279 1.85635 158 2.74033L155.752 4.86188C154.729 3.65378 153.461 3.04972 151.948 3.04972C151.011 3.04972 150.175 3.26335 149.44 3.69061C148.705 4.10313 148.129 4.68508 147.711 5.43646C147.308 6.18785 147.106 7.04236 147.106 8C147.106 8.95764 147.308 9.81215 147.711 10.5635C148.129 11.3149 148.705 11.9042 149.44 12.3315C150.175 12.744 151.011 12.9503 151.948 12.9503C153.461 12.9503 154.729 12.3389 155.752 11.116L158 13.2376C157.279 14.1363 156.386 14.8214 155.32 15.2928C154.253 15.7643 153.064 16 151.753 16Z" fill="white"/>
</svg>
