<svg width="419" height="36" viewBox="0 0 419 36" fill="none" xmlns="http://www.w3.org/2000/svg">
<path d="M31.56 35L31.512 14.84L21.624 31.448H18.12L8.28 15.272V35H0.984V1.4H7.416L19.992 22.28L32.376 1.4H38.76L38.856 35H31.56ZM72.8438 28.76V35H46.8278V1.4H72.2198V7.64H54.5558V14.936H70.1558V20.984H54.5558V28.76H72.8438ZM105.047 28.76V35H79.0309V1.4H104.423V7.64H86.7589V14.936H102.359V20.984H86.7589V28.76H105.047ZM118.194 7.736H107.442V1.4H136.722V7.736H125.97V35H118.194V7.736ZM170.772 35.576C167.284 35.576 164.132 34.824 161.316 33.32C158.532 31.816 156.34 29.752 154.74 27.128C153.172 24.472 152.388 21.496 152.388 18.2C152.388 14.904 153.172 11.944 154.74 9.32C156.34 6.664 158.532 4.584 161.316 3.08C164.132 1.576 167.284 0.823999 170.772 0.823999C174.26 0.823999 177.396 1.576 180.18 3.08C182.964 4.584 185.156 6.664 186.756 9.32C188.356 11.944 189.156 14.904 189.156 18.2C189.156 21.496 188.356 24.472 186.756 27.128C185.156 29.752 182.964 31.816 180.18 33.32C177.396 34.824 174.26 35.576 170.772 35.576ZM170.772 28.952C172.756 28.952 174.548 28.504 176.148 27.608C177.748 26.68 178.996 25.4 179.892 23.768C180.82 22.136 181.284 20.28 181.284 18.2C181.284 16.12 180.82 14.264 179.892 12.632C178.996 11 177.748 9.736 176.148 8.84C174.548 7.912 172.756 7.448 170.772 7.448C168.788 7.448 166.996 7.912 165.396 8.84C163.796 9.736 162.532 11 161.604 12.632C160.708 14.264 160.26 16.12 160.26 18.2C160.26 20.28 160.708 22.136 161.604 23.768C162.532 25.4 163.796 26.68 165.396 27.608C166.996 28.504 168.788 28.952 170.772 28.952ZM209.928 35.576C205.128 35.576 201.384 34.248 198.696 31.592C196.04 28.936 194.712 25.144 194.712 20.216V1.4H202.488V19.928C202.488 25.944 204.984 28.952 209.976 28.952C212.408 28.952 214.264 28.232 215.544 26.792C216.824 25.32 217.464 23.032 217.464 19.928V1.4H225.144V20.216C225.144 25.144 223.8 28.936 221.112 31.592C218.456 34.248 214.728 35.576 209.928 35.576ZM254.236 35L247.756 25.64H247.372H240.604V35H232.828V1.4H247.372C250.348 1.4 252.924 1.896 255.1 2.888C257.308 3.88 259.004 5.288 260.188 7.112C261.372 8.936 261.964 11.096 261.964 13.592C261.964 16.088 261.356 18.248 260.14 20.072C258.956 21.864 257.26 23.24 255.052 24.2L262.588 35H254.236ZM254.092 13.592C254.092 11.704 253.484 10.264 252.268 9.272C251.052 8.248 249.276 7.736 246.94 7.736H240.604V19.448H246.94C249.276 19.448 251.052 18.936 252.268 17.912C253.484 16.888 254.092 15.448 254.092 13.592ZM288.678 7.736H277.926V1.4H307.206V7.736H296.454V35H288.678V7.736ZM337.406 28.76V35H311.39V1.4H336.782V7.64H319.118V14.936H334.718V20.984H319.118V28.76H337.406ZM365.721 27.8H350.121L347.145 35H339.177L354.153 1.4H361.833L376.857 35H368.697L365.721 27.8ZM363.273 21.896L357.945 9.032L352.617 21.896H363.273ZM410.919 35L410.871 14.84L400.983 31.448H397.479L387.639 15.272V35H380.343V1.4H386.775L399.351 22.28L411.735 1.4H418.119L418.215 35H410.919Z" fill="url(#paint0_linear_2_110)"/>
<defs>
<linearGradient id="paint0_linear_2_110" x1="429" y1="5.00001" x2="-3.00001" y2="17.0001" gradientUnits="userSpaceOnUse">
<stop stop-color="#048A81"/>
<stop offset="1" stop-color="#55A95C"/>
</linearGradient>
</defs>
</svg>
